<svg xmlns="http://www.w3.org/2000/svg" width="67.416" height="40.248" viewBox="0 0 67.416 40.248">
  <g id="BNO_Lid_zwart" data-name="BNO Lid_zwart" transform="translate(-28 -22.1)">
    <path id="Path_1674" data-name="Path 1674" d="M41.223,39.853a5.747,5.747,0,0,0,4.1-5.389c0-4.233-3.186-6.165-7.772-6.165H28V52.8h8.647c4.793,0,9.279-1.435,9.279-6.9A6.123,6.123,0,0,0,41.223,39.853ZM31.186,30.963h6.156c3.43,0,4.73,1.571,4.73,3.746,0,2.482-1.787,3.917-4.973,3.917H31.186Zm5.984,19.145H31.186V41.325h5.84c4.342,0,5.632,1.886,5.632,4.414C42.658,48.636,40.98,50.107,37.171,50.107Z" transform="translate(0 -5.64)" fill="#000e1f"/>
    <path id="Path_1675" data-name="Path 1675" d="M277.722,46.118V49.2L265.293,28.3H260.5V52.806h3.186V31.387l12.808,21.419h4.45V28.3h-3.222Z" transform="translate(-211.514 -5.64)" fill="#000e1f"/>
    <path id="Path_1676" data-name="Path 1676" d="M529.117,22.1c-6.616,0-11.617,5.109-11.617,12.808s5.037,12.772,11.617,12.772,11.617-5.073,11.617-12.772S535.769,22.1,529.117,22.1Zm0,22.926c-4.973,0-8.259-3.854-8.259-10.118S524.252,24.8,529.117,24.8c4.9,0,8.259,3.854,8.259,10.118S534.09,45.026,529.117,45.026Z" transform="translate(-445.317 0)" fill="#000e1f"/>
    <path id="Path_1677" data-name="Path 1677" d="M29.219,361.9H28v9.369h6.1V370.24H29.219Z" transform="translate(0 -309.129)" fill="#000e1f"/>
    <rect id="Rectangle_72" data-name="Rectangle 72" width="1.155" height="6.454" transform="translate(34.869 55.686)" fill="#000e1f"/>
    <rect id="Rectangle_73" data-name="Rectangle 73" width="1.327" height="1.381" transform="translate(34.77 53.087)" fill="#000e1f"/>
    <path id="Path_1678" data-name="Path 1678" d="M135.173,365.168v.523a2.394,2.394,0,0,0-2.076-1.083c-1.832,0-3,1.489-3,3.439,0,2.193,1.282,3.43,2.97,3.43a2.43,2.43,0,0,0,2.1-1.1v.9h1.146V361.9h-1.155v3.267Zm-1.9,5.407c-1.182,0-1.986-1.02-1.986-2.527s.821-2.527,1.986-2.527,1.986.975,1.986,2.518S134.424,370.574,133.268,370.574Z" transform="translate(-92.884 -309.129)" fill="#000e1f"/>
  </g>
</svg>
