<svg xmlns="http://www.w3.org/2000/svg" width="125.543" height="46.737" viewBox="0 0 125.543 46.737">
  <path id="Path_1626" data-name="Path 1626" d="M113.361,3.7A211.048,211.048,0,0,0,56.254,2.057,207.352,207.352,0,0,0,29.065,6.881C22.541,8.489,14.634,9.99,9.495,14.724c-13.015,12,11.236,19.752,19.26,21.921A147.283,147.283,0,0,0,83.5,40.668a129.773,129.773,0,0,0,25.666-5.3c6.005-1.971,12.293-5.209,15.034-11.262,7.277-16.065-16.84-20.035-27.018-21.6A233.353,233.353,0,0,0,40.445,1.074c-8.714.8-17.871,1.517-26.307,3.964C9.42,6.4,4.173,8.708,1.646,13.185c-9.195,16.279,22.674,25.356,32.6,27.9,20.19,5.177,41.256,5.439,61.969,5.647,1.891.021,5.5-2.8,2.03-2.837C71.127,43.622,40.3,43.991,15.9,30.3c-5.353-3-12.224-8.623-10.023-15.627C8.314,6.924,19.539,6.357,26.153,5.417a247.805,247.805,0,0,1,44.707-2.4A203.535,203.535,0,0,1,94,5.236c6.513,1,13.747,1.822,19.575,5.113,6.379,3.606,8.757,10.728,3.938,16.829-5.284,6.684-16.872,8.121-24.737,9.5a139.884,139.884,0,0,1-45,.534,140.368,140.368,0,0,1-21.59-4.985c-5.182-1.651-13.9-4.087-14.869-10.557C9.927,12.315,25.6,10.316,31.907,8.836A196.679,196.679,0,0,1,57.749,4.584a202.065,202.065,0,0,1,52.433,1.849c1.581.262,6.053-2.26,3.179-2.73" transform="translate(0 0)" fill="#d8ff01"/>
</svg>
