<?xml version="1.0" standalone="no"?>
<!DOCTYPE svg PUBLIC "-//W3C//DTD SVG 20010904//EN"
 "http://www.w3.org/TR/2001/REC-SVG-20010904/DTD/svg10.dtd">
<svg version="1.0" xmlns="http://www.w3.org/2000/svg"
 width="700.000000pt" height="700.000000pt" viewBox="0 0 700.000000 700.000000"
 preserveAspectRatio="xMidYMid meet">
<metadata>
Created by potrace 1.14, written by Peter Selinger 2001-2017
</metadata>
<g transform="translate(0.000000,700.000000) scale(0.100000,-0.100000)"
fill="#000000" stroke="none">
<path d="M3278 6995 c-1 -1 -42 -5 -89 -9 -47 -4 -96 -9 -109 -11 -12 -2 -48
-7 -79 -11 -57 -6 -76 -9 -121 -19 -33 -7 -69 -14 -105 -21 -16 -3 -82 -18
-145 -34 -418 -106 -864 -318 -1205 -573 -103 -77 -159 -121 -165 -128 -3 -3
-41 -37 -85 -76 -390 -342 -716 -802 -919 -1300 -60 -147 -121 -333 -152 -463
-50 -214 -73 -351 -91 -550 -15 -168 -9 -571 12 -714 3 -17 7 -49 9 -71 10
-83 18 -131 26 -165 5 -19 12 -48 14 -65 27 -149 109 -419 184 -605 39 -97
131 -288 178 -370 20 -36 45 -81 56 -100 124 -218 354 -508 571 -718 81 -79
115 -109 227 -206 152 -131 452 -321 690 -438 303 -149 694 -268 1029 -314 25
-3 57 -8 71 -10 162 -25 671 -25 820 1 14 2 48 7 75 10 267 35 636 138 895
252 19 8 51 22 70 31 81 35 222 107 323 165 59 34 116 66 127 72 11 5 20 13
20 17 0 5 5 8 11 8 13 0 153 97 244 169 143 114 212 205 286 376 57 133 66
332 22 464 -28 85 -66 135 -229 301 -268 272 -277 283 -255 292 18 6 240 15
586 22 165 4 241 23 375 94 250 134 473 418 521 664 29 152 32 729 4 938 -2
19 -7 55 -10 80 -63 496 -268 1034 -558 1465 -61 90 -163 228 -203 275 -12 14
-41 48 -64 75 -162 192 -496 491 -650 581 -16 10 -30 22 -30 26 0 4 -6 8 -13
8 -8 0 -22 9 -32 20 -10 11 -22 20 -26 20 -4 0 -43 22 -86 48 -156 97 -356
194 -588 285 -155 61 -500 152 -655 172 -19 3 -46 7 -60 10 -13 2 -52 7 -86
11 -33 3 -74 8 -90 10 -33 5 -540 14 -546 9z"/>
</g>
</svg>
