<svg xmlns="http://www.w3.org/2000/svg" width="79.342" height="30" viewBox="0 0 79.342 30">
  <g id="Group_47" data-name="Group 47" transform="translate(-365 -1050.736)">
    <path id="Path_1302" data-name="Path 1302" d="M10.284.006V9.942H0v9.936H10.284v9.937H20.568V19.878H30.851V9.942H20.568V.006Z" transform="translate(365 1050.734)" fill="#fff"/>
    <path id="Path_1303" data-name="Path 1303" d="M76.091,14.213a4.785,4.785,0,0,0,4.856-5,4.716,4.716,0,0,0-4.856-5,4.786,4.786,0,0,0-4.854,5,4.713,4.713,0,0,0,4.854,5m0-8.338c1.714,0,2.987,1.219,2.987,3.343s-1.273,3.341-2.987,3.341-2.985-1.219-2.985-3.341,1.272-3.343,2.985-3.343" transform="translate(342.614 1049.578)" fill="#fff"/>
    <path id="Path_1304" data-name="Path 1304" d="M94.507,12.587a.248.248,0,0,0,.282.281H96a.247.247,0,0,0,.279-.281V.282A.248.248,0,0,0,96,0H94.758a.249.249,0,0,0-.282.282V4.61a3.474,3.474,0,0,0-3.082-1.548c-2.674,0-4.574,2.031-4.574,5.028,0,2.967,1.869,4.964,4.512,4.964a3.528,3.528,0,0,0,3.176-1.644ZM91.55,11.4c-1.711,0-2.862-1.218-2.862-3.341s1.151-3.343,2.862-3.343,2.987,1.219,2.987,3.343S93.263,11.4,91.55,11.4" transform="translate(337.131 1050.736)" fill="#fff"/>
    <path id="Path_1305" data-name="Path 1305" d="M99,24.449H97.57a.248.248,0,0,0-.281.282v1.435a.245.245,0,0,0,.281.278H99a.245.245,0,0,0,.281-.278V24.731A.248.248,0,0,0,99,24.449" transform="translate(334.258 1043.39)" fill="#fff"/>
    <path id="Path_1306" data-name="Path 1306" d="M98.944,29.267H97.7a.25.25,0,0,0-.282.282V38.6a.25.25,0,0,0,.282.282h1.244a.249.249,0,0,0,.279-.282V29.549a.248.248,0,0,0-.279-.282" transform="translate(334.223 1041.662)" fill="#fff"/>
    <path id="Path_1307" data-name="Path 1307" d="M56.972,12.868h1.275a.249.249,0,0,0,.282-.282V8h2.116l3.327,4.653a.506.506,0,0,0,.436.219H65.9c.28,0,.311-.252.186-.408L62.636,7.682a3.613,3.613,0,0,0,3.109-3.652C65.745,1.281,63.536,0,61.2,0H56.972a.249.249,0,0,0-.28.282v12.3a.248.248,0,0,0,.28.282M58.529,1.78h2.518c1.805,0,2.8.845,2.8,2.251s-1,2.248-2.8,2.248H58.529Z" transform="translate(347.192 1050.736)" fill="#fff"/>
    <path id="Path_1308" data-name="Path 1308" d="M90.149,29.267H88.9a.247.247,0,0,0-.279.282v5.185a2.392,2.392,0,0,1-2.457,2.651c-1.432,0-2.367-.935-2.367-2.651V29.549a.248.248,0,0,0-.28-.282H82.274a.247.247,0,0,0-.278.282v5.5a3.776,3.776,0,0,0,3.859,4.029,3.038,3.038,0,0,0,2.8-1.469v1a.249.249,0,0,0,.28.282h1.215a.249.249,0,0,0,.281-.282V29.549a.249.249,0,0,0-.281-.282" transform="translate(339.289 1041.662)" fill="#fff"/>
    <path id="Path_1309" data-name="Path 1309" d="M107.152,4.219c-2.459,0-4.45,2-4.45,5a4.791,4.791,0,0,0,8.462,3.278.262.262,0,0,0-.031-.406l-.713-.718a.265.265,0,0,0-.406,0,3.49,3.49,0,0,1-2.579,1.218,2.835,2.835,0,0,1-2.873-2.624h6.7c.282,0,.313-.217.313-.623,0-3.185-1.772-5.123-4.417-5.123m-2.6,4.248c.239-1.857,1.383-2.623,2.6-2.623a2.6,2.6,0,0,1,2.584,2.623Z" transform="translate(332.773 1049.578)" fill="#fff"/>
    <path id="Path_1310" data-name="Path 1310" d="M107.242,33.227C106.059,32.882,105,32.569,105,31.7c0-.654.622-1.062,1.834-1.062a4.721,4.721,0,0,1,2.428.686.291.291,0,0,0,.406-.122l.463-.94a.278.278,0,0,0-.123-.4,7.327,7.327,0,0,0-3.267-.845c-2.053,0-3.545,1.03-3.545,2.812,0,1.9,1.742,2.467,3.329,2.934,1.275.375,2.148.626,2.148,1.437,0,.657-.531,1.186-1.995,1.186a5.705,5.705,0,0,1-2.986-.935c-.187-.094-.311-.063-.4.124l-.466.937a.3.3,0,0,0,.06.375A7.049,7.049,0,0,0,106.8,39c2.209,0,3.674-1.093,3.674-2.905,0-1.967-1.711-2.436-3.236-2.871" transform="translate(332.751 1041.733)" fill="#fff"/>
    <path id="Path_1311" data-name="Path 1311" d="M61.2,30.475l4.98-5.275c.125-.156.093-.406-.188-.406H64.5a.563.563,0,0,0-.465.218l-5.507,5.845V25.076a.249.249,0,0,0-.282-.282H56.972a.248.248,0,0,0-.279.282v12.3a.248.248,0,0,0,.279.282h1.276a.249.249,0,0,0,.282-.282V33.2L59.9,31.757l4.359,5.683a.559.559,0,0,0,.465.219h1.495c.28,0,.311-.25.186-.408Z" transform="translate(347.183 1042.89)" fill="#fff"/>
    <path id="Path_1312" data-name="Path 1312" d="M77.387,29.008A3.648,3.648,0,0,0,73.9,31.443V29.477a.248.248,0,0,0-.279-.282H72.406a.246.246,0,0,0-.278.282v9.056a.247.247,0,0,0,.278.282h1.247a.249.249,0,0,0,.28-.282V35.067c0-2.53,1.369-4.091,3.454-4.091a.248.248,0,0,0,.279-.283v-1.4a.247.247,0,0,0-.279-.282" transform="translate(342.488 1041.733)" fill="#fff"/>
  </g>
</svg>
