<?xml version="1.0" encoding="UTF-8"?>
<!DOCTYPE svg PUBLIC "-//W3C//DTD SVG 1.1//EN" "http://www.w3.org/Graphics/SVG/1.1/DTD/svg11.dtd">
<svg xmlns="http://www.w3.org/2000/svg" xmlns:xlink="http://www.w3.org/1999/xlink">
	<defs>
    <clipPath id="a">
      <path data-name="Rectangle 4" fill="none" d="M0 0h78.129v47.969H0z"/>
    </clipPath>
  </defs>
<symbol id="circle-m" viewBox="0 0 84.045 58.376">
  
  <g data-name="Group 34">
    <g data-name="Group 7" transform="rotate(172 40.362 26.69)" clip-path="url(#a)">
      <path data-name="Path 9" d="M21.664 47.906c9.745-.036 19.536-.141 29.2-2.894a51.767 51.767 0 0 0 14.014-6.3 48.009 48.009 0 0 0 6.6-5.043 14.034 14.034 0 0 0 4.149-6.473c2.477-8.3-3.716-14.386-6.709-16.871-4.439-3.685-9.31-5.4-14.033-6.938A65.494 65.494 0 0 0 23.851.894c-4.891.794-9.913 1.78-14.638 4.548a19.467 19.467 0 0 0-6.165 5.382 15.722 15.722 0 0 0-3.041 8.845c-.225 8.775 6.098 11.927 9.338 13.437 4.985 2.33 10.169 3.311 15.258 4.267 10.189 1.914 20.6 2.86 30.809 1.055A41.213 41.213 0 0 0 69.6 33.27a32.886 32.886 0 0 0 6.6-4.915 6.189 6.189 0 0 0 1.8-3.249 7.814 7.814 0 0 0-.691-4.789 15.847 15.847 0 0 0-2.786-3.9 25.657 25.657 0 0 0-2.942-2.814 30.123 30.123 0 0 0-6.69-4.027 93.887 93.887 0 0 0-15.01-5.239 95.565 95.565 0 0 0-31.415-2.991q-3.827.277-7.646.868a1.091 1.091 0 0 0-.956.727c-.14.52.119.673.362.636a93.837 93.837 0 0 1 29.75.16 100.1 100.1 0 0 1 14.647 3.6c4.563 1.491 9.211 3.028 13.615 5.9a24.754 24.754 0 0 1 5.987 5.45 10.138 10.138 0 0 1 2.306 4.286 5.072 5.072 0 0 1-1.1 4.7 28 28 0 0 1-6.349 4.679 37.378 37.378 0 0 1-6.706 3.072c-9.337 3.207-18.973 2.89-28.4 1.862a112.179 112.179 0 0 1-15.065-2.7c-4.607-1.152-9.488-2.213-13.733-6.21a11.817 11.817 0 0 1-3.688-7.77 14.229 14.229 0 0 1 2.681-9.526 16.9 16.9 0 0 1 6.182-5.054 32.353 32.353 0 0 1 6.923-2.5 63.923 63.923 0 0 1 29.337-.757 67.368 67.368 0 0 1 14.361 4.65 29.963 29.963 0 0 1 6.442 3.857 21.658 21.658 0 0 1 5.65 6.511 13.026 13.026 0 0 1 1.044 10.14 13.1 13.1 0 0 1-4.65 6.153 48.757 48.757 0 0 1-13.06 7.833c-9.019 3.623-18.252 4.373-27.43 4.566-2.239.048-4.477.059-6.717.068a1.064 1.064 0 0 0-.955.726c-.146.544.125.637.362.636" fill="#d8ff01"/>
    </g>
  </g>
</symbol>
<symbol id="plus" viewBox="0 0 20 20">
  <path d="M9 1h1v17H9z"/>
  <path d="M1 9h17v1H1z"/>
</symbol>
<symbol id="triangle-down" viewBox="0 0 10 8">
  <path d="M5 8 0 0h10Z"/>
</symbol>
</svg>